<svg version="1" xmlns="http://www.w3.org/2000/svg" width="666.667" height="666.667" viewBox="0 0 500.000000 500.000000"><path d="M111 64.2v59.4l9.3 5.2c5 2.9 11.2 6.4 13.7 7.8 2.5 1.5 18 10.3 34.5 19.7 16.5 9.4 37.4 21.3 46.5 26.5 9.1 5.2 18.8 10.7 21.5 12.2 2.8 1.5 7.3 4.1 10.1 5.8 2.8 1.6 7.8 4.5 11 6.3 3.3 1.7 14.1 7.9 24 13.6l18.1 10.3 50.6-29.2 50.5-29.2-5.1-3.2c-2.9-1.7-7.5-4.4-10.4-6-4.9-2.7-29.1-16.6-39.2-22.6-2.5-1.5-5.7-3.3-7.1-4.1-1.4-.7-8.6-4.9-16-9.2-7.4-4.3-15.1-8.7-17-9.7-1.9-1.1-3.9-2.4-4.5-2.8-.5-.4-3.5-2.1-6.5-3.8-3-1.6-19.7-11.2-37-21.2-17.3-10.1-32.8-19.1-34.5-20-1.6-1-23.5-13.5-48.5-28-41.4-23.8-50.8-29.3-60.7-35.2l-3.3-2v59.4zM112 325.5v168.7l3.3-2c1.7-1.1 8.2-4.9 14.2-8.4 6.1-3.5 39.4-23 74-43.3 34.7-20.2 64.4-37.6 66-38.5 1.7-1 16.1-9.4 32-18.7 16-9.4 43.6-25.5 61.5-36s33.9-19.9 35.7-21l3.2-1.9-26.7-15.4c-14.7-8.4-40.4-23.3-57.2-33-16.8-9.7-32.5-18.8-35-20.2-6.7-3.8-35-20.2-47.3-27.4-6-3.5-11.1-6.4-11.4-6.4-.3 0-1.7-.8-3.1-1.9-1.5-1-4.7-2.9-7.2-4.3s-16.4-9.4-31-17.8c-14.6-8.4-35-20.3-45.5-26.3-10.4-6-20.5-11.8-22.2-12.9l-3.3-2v168.7z"/></svg>